<svg xmlns="http://www.w3.org/2000/svg" width="48" height="48" viewBox="0 0 48 48">
    <g fill="none" fill-rule="nonzero" transform="translate(2 2)">
        <path fill="#1C8AFF" d="M22.113 27.894L11.524 17.305.22 41.19c-.01.022-.604 1.487.208 2.299.814.814 2.288.212 2.3.207L26.608 32.39l-2.917-2.917"/>
        <path fill="#459FFF" d="M17.724 23.505a22.055 22.055 0 0 0-4.808 15.366l13.693-6.48c-3.55-3.551-2.364-2.366-8.885-8.886z"/>
        <path fill="#1A7FEB" d="M2.01 43.882c.148-.964 8.684-18.504 11.495-24.596l-1.98-1.98L.218 41.188c-.077.169-.591 1.63.29 2.374.583.497 1.415.319 1.5.319z"/>
        <circle cx="16.583" cy="8.513" r="1.291" fill="#FFCA54"/>
        <circle cx="36.291" cy="13.719" r="1.291" fill="#00CDB3"/>
        <path fill="#FFCA54" d="M26.61 32.39l2.79-1.298-16.575-16.576-1.3 2.789"/>
        <path fill="#FCD27C" d="M17.724 23.505l8.885 8.885 2.792-1.298-9.724-9.723a22.24 22.24 0 0 0-1.953 2.136z"/>
        <path fill="#FFCA54" d="M9.776 20.998l-3.338 7.053a3.904 3.904 0 0 0 3.338-7.053z"/>
        <path fill="#F9B24B" d="M9.776 20.998l-3.338 7.053a3.917 3.917 0 0 0 2.878.087l2.353-4.97a3.908 3.908 0 0 0-1.893-2.17z"/>
        <path fill="#FFCA54" d="M15.924 34.532l-.003-.001c-1.225-1.36-2.73-1.275-2.73-1.275v.001c-3.621-.145-5.49 4.346-2.773 6.797l6.515-3.084a3.899 3.899 0 0 0-1.009-2.438z"/>
        <path fill="#F9B24B" d="M4.263 32.646l-1.53 3.232c.754.863 2.06.885 2.848.096 1.209-1.209.381-3.274-1.318-3.328z"/>
        <circle cx="16.003" cy="27.912" r="1.668" fill="#FFCA54"/>
        <path fill="#F9B24B" d="M13.505 19.286l1.28-2.745a1.44 1.44 0 0 1-.04-.105l-1.92-1.92-.014.032-1.286 2.757 1.98 1.981z"/>
        <path fill="#FFB121" d="M25.624 17.904a.703.703 0 0 1 .456-.885c1.084-.347 3.627-1.47 3.82-4.38.115-1.725.748-3.093 1.881-4.066 2.06-1.767 5.015-1.533 5.14-1.522a.704.704 0 0 1-.12 1.402c-.025-.002-2.506-.189-4.11 1.194-.832.716-1.298 1.755-1.386 3.086-.177 2.656-1.925 4.707-4.796 5.626a.703.703 0 0 1-.885-.455z"/>
        <g fill="#FF4B4E" transform="translate(21.357 .686)">
            <circle cx="5.546" cy="11.644" r="1"/>
            <circle cx=".993" cy=".917" r="1"/>
        </g>
        <g fill="#00CDB3">
            <path d="M31.919 26.4a.703.703 0 0 1 .681-.726l1.402-.044a.703.703 0 1 1 .044 1.406l-1.402.044a.704.704 0 0 1-.725-.68zM19.218 6.094a.704.704 0 0 1-.681-.726l.044-1.401a.704.704 0 1 1 1.406.044l-.044 1.402a.704.704 0 0 1-.725.68z"/>
        </g>
        <path fill="#57BAE5" d="M26.49 7.191a.704.704 0 0 1 .681-.725l1.401-.044a.703.703 0 1 1 .045 1.406l-1.402.044a.703.703 0 0 1-.725-.68z"/>
        <g fill="#FFB121">
            <path d="M43.333 16.453c-3.5-.618-4.607 1.68-5.416 3.356-.805 1.669-1.249 2.588-3.314 1.715-1.916-.81-3.515-.908-4.752-.292-.986.49-1.348 1.262-1.386 1.348a.704.704 0 0 0 1.287.568c.008-.018.838-1.792 4.304-.328 3.199 1.352 4.257-.595 5.128-2.4.812-1.684 1.454-3.014 3.904-2.58a.703.703 0 1 0 .245-1.387zM26.646.011a.703.703 0 0 0-.57.815c.692 3.92-3.37 3.377-4.927 5.534-.65.901-.669 2.046-.055 3.499 1.421 3.363-.228 4.253-.334 4.306-.077.034-.775.355-.534.89.34.758 1.108.395 1.108.395.795-.35 2.784-2.05 1.056-6.139-.872-2.065-.008-2.482 1.715-3.313 1.677-.81 3.974-1.917 3.356-5.416a.704.704 0 0 0-.815-.57z"/>
        </g>
        <path fill="#1C8AFF" d="M30.968 28.758L15.156 12.946a1.446 1.446 0 0 0-2.044 2.045l15.812 15.812a1.446 1.446 0 0 0 2.044-2.045z"/>
        <path fill="#459FFF" d="M28.924 30.803a1.446 1.446 0 0 0 2.044-2.045L21.79 19.58a22.268 22.268 0 0 0-2.208 1.882l9.342 9.34z"/>
        <path fill="#1A7FEB" d="M12.81 14.548c.143.327.141.282 1.936 2.077l.04-.084a1.444 1.444 0 0 1 1.552-2.005v-.001s.453.046.133-.274l-1.314-1.315a1.445 1.445 0 0 0-2.347 1.602z"/>
    </g>
</svg>
