<svg xmlns="http://www.w3.org/2000/svg" width="48" height="48" viewBox="0 0 48 48">
    <g fill="none" fill-rule="evenodd" transform="translate(4 6)">
        <rect width="40" height="28" y="6" fill="#1C8AFF" rx="2"/>
        <path fill="#FFF" d="M20 15h14v4H20v-4zm0 6h14v2H20v-2zm0 4h8v2h-8v-2z"/>
        <rect width="6" height="7" x="9" y="15" fill="#FFF" rx="3"/>
        <path fill="#FFF" d="M17.973 28H6.027a4.5 4.5 0 0 1 4.473-5h3a4.5 4.5 0 0 1 4.473 5z"/>
        <path fill="#2B4059" d="M20 0a4 4 0 0 1 4 4v5a2 2 0 0 1-2 2h-4a2 2 0 0 1-2-2V4a4 4 0 0 1 4-4zm0 6a2 2 0 1 0 0-4 2 2 0 0 0 0 4z"/>
    </g>
</svg>
