<svg xmlns="http://www.w3.org/2000/svg" width="48" height="48" viewBox="0 0 48 48">
    <g fill="none" fill-rule="evenodd" transform="translate(4 10)">
        <path stroke="#1C8AFF" stroke-width="2" d="M29.743 4.1a13.956 13.956 0 0 0-9.9-4.1c-7.732 0-14 6.268-14 14m4.1 9.9a13.956 13.956 0 0 0 9.9 4.1c7.732 0 14-6.268 14-14"/>
        <path fill="#1C8AFF" d="M6 13.485L9.536 9.95a1 1 0 0 1 1.414 1.414l-4.243 4.243a.997.997 0 0 1-1.414 0L1.05 11.364A1 1 0 1 1 2.464 9.95L6 13.485zM33.9 14.828l-3.536 3.536a1 1 0 0 1-1.414-1.414l4.243-4.243a.997.997 0 0 1 1.414 0l4.243 4.243a1 1 0 0 1-1.414 1.414L33.9 14.828z"/>
        <circle cx="19.843" cy="14" r="6" fill="#FAECCB" stroke="#FFC642" stroke-width="3"/>
    </g>
</svg>
