<svg xmlns="http://www.w3.org/2000/svg" width="125" height="30" viewBox="0 0 125 30">
    <g fill="none" fill-rule="evenodd">
        <path fill="#1C8AFF" d="M17.206 16.973l10.67-6.499a.776.776 0 0 0 .029-1.308L17.227 1.989a.77.77 0 0 0-1.204.644v13.673a.77.77 0 1 0 1.183.667z"/>
        <path fill="#061F3C" d="M27.853 12.613l-11.5 7.006a.776.776 0 0 0-.374.662v8.661a.77.77 0 1 0 1.198.65l11.498-7.596a.777.777 0 0 0 .348-.65v-8.068a.77.77 0 1 0-1.17-.665zM0 21V8.05c0-.303.178-.58.454-.705L12.37 1.927a.77.77 0 0 1 1.093.706v26.35c0 .287-.158.55-.41.685a.77.77 0 0 1-.794-.04L.343 21.647A.777.777 0 0 1 0 21z"/>
        <path fill="#061F3C" fill-rule="nonzero" d="M48.216 9.569a5.046 5.046 0 0 1 1.954 2.09c.487.981.728 2.067.704 3.163a6.128 6.128 0 0 1-.773 3.103 5.113 5.113 0 0 1-2.137 2.038c-.96.482-2.02.724-3.093.706a5.227 5.227 0 0 1-2.087-.44 4.606 4.606 0 0 1-1.668-1.202v6.664h-2.928V9.121h2.534l.257 1.645a6.585 6.585 0 0 1 1.993-1.41 5.79 5.79 0 0 1 2.461-.516 5.398 5.398 0 0 1 2.783.729zm-2.123 8.322c.537-.294.99-.721 1.317-1.241a3.257 3.257 0 0 0 .495-1.777 3.514 3.514 0 0 0-.977-2.547 3.224 3.224 0 0 0-2.41-1.006 3.584 3.584 0 0 0-2.15.626 3.524 3.524 0 0 0-1.262 1.75v2.222a3.076 3.076 0 0 0 1.134 1.751c.59.455 1.317.695 2.062.68a3.599 3.599 0 0 0 1.79-.46v.002zM64.902 9.331v11.053h-2.917v-1.593c-.461.52-1.007.958-1.614 1.293a4.626 4.626 0 0 1-2.371.588 5.955 5.955 0 0 1-2.835-.665 4.84 4.84 0 0 1-1.98-1.973 6.396 6.396 0 0 1-.729-3.163 6.463 6.463 0 0 1 .755-3.176 5.369 5.369 0 0 1 4.779-2.86c1.788 0 3.126.662 4.013 1.986l.206-1.49h2.693zm-4.077 8.322a3.26 3.26 0 0 0 1.157-1.737V13.51a3.04 3.04 0 0 0-1.209-1.644 3.533 3.533 0 0 0-2.062-.629 3.167 3.167 0 0 0-2.342.98 3.407 3.407 0 0 0-.964 2.496 3.558 3.558 0 0 0 1.72 3.09c.51.311 1.095.474 1.692.471a3.28 3.28 0 0 0 2.008-.62z"/>
        <path fill="#061F3C" d="M79.245 9.331l-7.111 16.36h-2.863l2.577-5.777L66.753 9.33h3.273l3.28 7.316 3.282-7.316z"/>
        <path fill="#061F3C" fill-rule="nonzero" d="M91.216 9.569a5.046 5.046 0 0 1 1.954 2.09c.487.981.728 2.067.704 3.163a6.102 6.102 0 0 1-.773 3.103 5.093 5.093 0 0 1-2.122 2.04c-.959.483-2.02.725-3.092.707-.726 0-1.444-.15-2.109-.443-.639-.269-1.21-.68-1.667-1.202v6.664h-2.925V9.121h2.525l.258 1.645a6.585 6.585 0 0 1 1.992-1.41 5.79 5.79 0 0 1 2.462-.516 5.398 5.398 0 0 1 2.793.729zm-2.123 8.322c.537-.295.99-.722 1.317-1.241a3.28 3.28 0 0 0 .495-1.777 3.514 3.514 0 0 0-.977-2.547 3.224 3.224 0 0 0-2.41-1.006 3.584 3.584 0 0 0-2.15.626 3.509 3.509 0 0 0-1.262 1.75v2.222a3.076 3.076 0 0 0 1.134 1.751c.59.455 1.317.695 2.062.68a3.599 3.599 0 0 0 1.79-.46v.002z"/>
        <path fill="#061F3C" d="M98.508 0v20.384h-2.915V0zM111.765 9.331v11.053h-2.631l-.183-1.986a4.339 4.339 0 0 1-1.69 1.79 4.884 4.884 0 0 1-2.555.667 3.557 3.557 0 0 1-2.513-.928 3.197 3.197 0 0 1-1.03-2.39V9.331h2.917v7.159c.051 1.22.653 1.84 1.804 1.857.85 0 1.558-.393 2.124-1.177.586-.867.88-1.9.84-2.946V9.331h2.917zM121.27 20.384l-2.785-3.659-2.578 3.66h-2.943l4.062-5.54-4.194-5.514h3.609l2.683 3.553 2.24-3.553h2.914l-3.788 5.33 4.296 5.723z"/>
    </g>
</svg>
