<svg xmlns="http://www.w3.org/2000/svg" width="48" height="48" viewBox="0 0 48 48">
    <g fill="none" fill-rule="evenodd">
        <path d="M0 0h48v48H0z"/>
        <g transform="translate(12 4)">
            <rect width="24" height="40" fill="#2B4059" rx="2"/>
            <rect width="20" height="31" x="2" y="2" fill="#F2F3F5" rx="1"/>
            <rect width="6" height="3" x="9" y="35" fill="#516276" rx="1.5"/>
        </g>
        <path fill="#1C8AFF" d="M26.5 23L24 26V13a2 2 0 0 1 2-2h16a2 2 0 0 1 2 2v8a2 2 0 0 1-2 2H26.5z"/>
        <g fill="#FFF" fill-rule="nonzero">
            <path d="M26.5 15a.5.5 0 1 1 0-1h7a.5.5 0 0 1 0 1h-7zM26.483 17a.492.492 0 0 1-.483-.5c0-.276.216-.5.483-.5h13.034c.267 0 .483.224.483.5s-.216.5-.483.5H26.483zM26.476 19a.489.489 0 0 1-.476-.5c0-.276.213-.5.476-.5h9.048c.263 0 .476.224.476.5s-.213.5-.476.5h-9.048z"/>
        </g>
    </g>
</svg>
