<svg xmlns="http://www.w3.org/2000/svg" width="690" height="616" viewBox="0 0 690 616">
    <g fill="#1C8AFF" fill-rule="evenodd" opacity=".054">
        <path d="M17.928 306.203l161.7-98.977a11.835 11.835 0 0 0 5.638-9.846 11.845 11.845 0 0 0-5.208-10.083L18.24 78a11.634 11.634 0 0 0-12.036-.61C2.39 79.44.004 83.446 0 87.807v208.235c-.05 4.32 2.24 8.325 5.976 10.442a11.634 11.634 0 0 0 11.952-.28zM528.864 464.203l-161.7-98.977a11.835 11.835 0 0 1-5.637-9.846 11.845 11.845 0 0 1 5.208-10.083L528.552 236a11.634 11.634 0 0 1 12.035-.61c3.816 2.051 6.201 6.056 6.206 10.417v208.235c.05 4.32-2.241 8.325-5.977 10.442a11.634 11.634 0 0 1-11.952-.28zM412.77 594.524a3.405 3.405 0 0 1-2.153-2.78 3.45 3.45 0 0 1 1.47-3.213l50.11-35.866a3.565 3.565 0 0 1 3.59-.326 3.396 3.396 0 0 1 1.953 2.953l1.939 57.116a3.456 3.456 0 0 1-1.518 2.969 3.567 3.567 0 0 1-3.353.362l-52.038-21.215zM606.017 396.47a5.089 5.089 0 0 1-3.12-4.221 5.2 5.2 0 0 1 2.269-4.78l75.352-52.523a5.25 5.25 0 0 1 5.337-.4 5.085 5.085 0 0 1 2.82 4.477L690 424.702a5.21 5.21 0 0 1-2.334 4.413 5.252 5.252 0 0 1-4.987.459l-76.662-33.104zM493.452 84.629a6.603 6.603 0 0 1-2.682-6.24 6.754 6.754 0 0 1 4.234-5.381l109.703-44.514a6.704 6.704 0 0 1 6.804 1.044 6.607 6.607 0 0 1 2.23 6.473L590.47 144.656a6.759 6.759 0 0 1-4.208 4.9 6.706 6.706 0 0 1-6.383-.866L493.452 84.63zM187.946 92.584a4.731 4.731 0 0 1-4.817-.56 4.778 4.778 0 0 1-1.81-4.517l11.766-83.392a4.79 4.79 0 0 1 3.081-3.823 4.73 4.73 0 0 1 4.8.921l58.828 52.87a4.78 4.78 0 0 1 1.522 4.33 4.79 4.79 0 0 1-2.821 3.627l-70.549 30.544zM117.686 605.846l104.012-63.567a7.599 7.599 0 0 0 3.627-6.324 7.604 7.604 0 0 0-3.35-6.476l-104.088-70.195a7.494 7.494 0 0 0-7.742-.392 7.598 7.598 0 0 0-3.991 6.691V599.32a7.6 7.6 0 0 0 3.844 6.707 7.493 7.493 0 0 0 7.688-.18z"/>
    </g>
</svg>
